<svg width="19" height="6" viewBox="0 0 19 6" fill="none" xmlns="http://www.w3.org/2000/svg">
<path d="M1 3C1 3.53043 1.11194 4.03914 1.3112 4.41421C1.51046 4.78929 1.78071 5 2.0625 5C2.34429 5 2.61454 4.78929 2.8138 4.41421C3.01306 4.03914 3.125 3.53043 3.125 3C3.125 2.46957 3.01306 1.96086 2.8138 1.58579C2.61454 1.21071 2.34429 1 2.0625 1C1.78071 1 1.51046 1.21071 1.3112 1.58579C1.11194 1.96086 1 2.46957 1 3ZM8.4375 3C8.4375 3.53043 8.54944 4.03914 8.7487 4.41421C8.94796 4.78929 9.21821 5 9.5 5C9.78179 5 10.052 4.78929 10.2513 4.41421C10.4506 4.03914 10.5625 3.53043 10.5625 3C10.5625 2.46957 10.4506 1.96086 10.2513 1.58579C10.052 1.21071 9.78179 1 9.5 1C9.21821 1 8.94796 1.21071 8.7487 1.58579C8.54944 1.96086 8.4375 2.46957 8.4375 3ZM15.875 3C15.875 3.53043 15.9869 4.03914 16.1862 4.41421C16.3855 4.78929 16.6557 5 16.9375 5C17.2193 5 17.4895 4.78929 17.6888 4.41421C17.8881 4.03914 18 3.53043 18 3C18 2.46957 17.8881 1.96086 17.6888 1.58579C17.4895 1.21071 17.2193 1 16.9375 1C16.6557 1 16.3855 1.21071 16.1862 1.58579C15.9869 1.96086 15.875 2.46957 15.875 3Z" stroke="#52388A" stroke-width="2" stroke-linecap="round" stroke-linejoin="round"/>
</svg>
