<svg width="14" height="15" viewBox="0 0 14 15" fill="none" xmlns="http://www.w3.org/2000/svg">
<path d="M5.18455 14.7998C5.04262 14.7998 4.90068 14.7279 4.78863 14.5739L0.254272 8.34259C0.0376386 8.04488 0.0376386 7.55212 0.254272 7.25441L4.78863 1.02309C5.00526 0.725378 5.36383 0.725378 5.5805 1.02309C5.79713 1.32079 5.79713 1.81355 5.5805 2.11126L1.44202 7.7985L5.5805 13.4858C5.79713 13.7835 5.79713 14.2762 5.5805 14.5739C5.47588 14.7279 5.32648 14.7998 5.18455 14.7998Z" fill="white" fill-opacity="0.9"/>
<path d="M13.3492 8.56819H0.777056C0.470781 8.56819 0.216797 8.21915 0.216797 7.79826C0.216797 7.37736 0.470781 7.02832 0.777056 7.02832H13.3492C13.6555 7.02832 13.9095 7.37736 13.9095 7.79826C13.9095 8.21915 13.6555 8.56819 13.3492 8.56819Z" fill="white" fill-opacity="0.9"/>
</svg>
