<svg width="29" height="26" viewBox="0 0 29 26" fill="none" xmlns="http://www.w3.org/2000/svg">
<path d="M3.87407 26H25.1265C27.6922 26 29 24.5818 29 21.7733V7.49879C29 4.69031 27.6922 3.28607 25.1265 3.28607H22.2402C21.2782 3.28607 20.9824 3.06793 20.4272 2.38616L19.4277 1.15876C18.8235 0.409522 18.1946 0 16.9115 0H12.0022C10.7317 0 10.1023 0.409522 9.48597 1.15876L8.48653 2.38616C7.94392 3.05396 7.63551 3.28607 6.67344 3.28607H3.87354C1.30785 3.28607 0 4.69031 0 7.49879V21.7733C0 24.5818 1.30837 26 3.87407 26ZM14.4942 21.6372C10.7686 21.6372 7.7713 18.3238 7.7713 14.1797C7.7713 10.0345 10.7686 6.72221 14.4937 6.72221C18.2435 6.72221 21.2287 10.0345 21.2287 14.1797C21.2287 18.3238 18.2314 21.6372 14.4937 21.6372M23.3623 10.8523C22.5234 10.8523 21.8329 10.1031 21.8329 9.17586C21.8329 8.72752 21.994 8.29755 22.2808 7.98053C22.5677 7.66351 22.9567 7.48541 23.3623 7.48541C23.7679 7.48541 24.1569 7.66351 24.4438 7.98053C24.7306 8.29755 24.8917 8.72752 24.8917 9.17586C24.8917 10.1031 24.2012 10.8523 23.3623 10.8523ZM14.4942 19.5652C15.1343 19.566 15.7682 19.4273 16.3597 19.1569C16.9512 18.8866 17.4887 18.4899 17.9413 17.9897C18.3939 17.4894 18.7527 16.8954 18.9973 16.2416C19.2419 15.5878 19.3674 14.8872 19.3667 14.1797C19.3674 13.4723 19.2418 12.7717 18.9972 12.118C18.7525 11.4643 18.3937 10.8703 17.9411 10.3701C17.4885 9.86992 16.9511 9.47332 16.3596 9.20301C15.7681 8.9327 15.1342 8.79399 14.4942 8.79484C11.8048 8.79484 9.63439 11.1944 9.63439 14.1797C9.63439 17.1656 11.8175 19.5652 14.4942 19.5652Z" fill="#52388A"/>
</svg>
