<svg width="20" height="21" viewBox="0 0 20 21" fill="none" xmlns="http://www.w3.org/2000/svg">
<path d="M17.0124 3.08939C15.3794 1.36103 13.2242 0.285924 10.9182 0.0494353C8.61229 -0.187053 6.30014 0.429892 4.38039 1.79391C2.46065 3.15793 1.05362 5.18354 0.401878 7.52152C-0.249864 9.8595 -0.105474 12.3633 0.810154 14.6014C0.905586 14.8094 0.936898 15.0435 0.899724 15.2712L0.023929 19.6981C-0.00981274 19.8678 -0.0029226 20.0437 0.0439803 20.2099C0.0908832 20.3761 0.176329 20.5275 0.292639 20.6504C0.387985 20.7499 0.50151 20.8281 0.62637 20.8803C0.751231 20.9325 0.884841 20.9575 1.01915 20.9539H1.21819L5.47774 20.0539C5.69423 20.0265 5.91377 20.059 6.11468 20.1481C8.24296 21.1109 10.624 21.2627 12.8473 20.5774C15.0707 19.892 16.9969 18.4125 18.2941 16.3937C19.5912 14.375 20.1779 11.9436 19.953 9.51871C19.7281 7.09385 18.7057 4.82748 17.0621 3.11032L17.0124 3.08939ZM5.99525 11.535C5.79842 11.535 5.606 11.4736 5.44234 11.3586C5.27868 11.2436 5.15112 11.0802 5.07579 10.889C5.00046 10.6977 4.98076 10.4873 5.01916 10.2843C5.05756 10.0813 5.15234 9.89481 5.29153 9.74844C5.43071 9.60208 5.60804 9.50241 5.8011 9.46203C5.99415 9.42165 6.19426 9.44237 6.37611 9.52158C6.55796 9.60079 6.71339 9.73493 6.82275 9.90703C6.93211 10.0791 6.99048 10.2815 6.99048 10.4885C6.99048 10.766 6.88562 11.0322 6.69898 11.2285C6.51234 11.4247 6.2592 11.535 5.99525 11.535ZM9.97614 11.535C9.7793 11.535 9.58689 11.4736 9.42322 11.3586C9.25956 11.2436 9.132 11.0802 9.05667 10.889C8.98135 10.6977 8.96164 10.4873 9.00004 10.2843C9.03844 10.0813 9.13323 9.89481 9.27241 9.74844C9.4116 9.60208 9.58893 9.50241 9.78198 9.46203C9.97503 9.42165 10.1751 9.44237 10.357 9.52158C10.5388 9.60079 10.6943 9.73493 10.8036 9.90703C10.913 10.0791 10.9714 10.2815 10.9714 10.4885C10.9714 10.766 10.8665 11.0322 10.6799 11.2285C10.4932 11.4247 10.2401 11.535 9.97614 11.535ZM13.957 11.535C13.7602 11.535 13.5678 11.4736 13.4041 11.3586C13.2404 11.2436 13.1129 11.0802 13.0376 10.889C12.9622 10.6977 12.9425 10.4873 12.9809 10.2843C13.0193 10.0813 13.1141 9.89481 13.2533 9.74844C13.3925 9.60208 13.5698 9.50241 13.7629 9.46203C13.9559 9.42165 14.156 9.44237 14.3379 9.52158C14.5197 9.60079 14.6752 9.73493 14.7845 9.90703C14.8939 10.0791 14.9522 10.2815 14.9522 10.4885C14.9522 10.766 14.8474 11.0322 14.6608 11.2285C14.4741 11.4247 14.221 11.535 13.957 11.535Z" fill="#52388A"/>
</svg>
