<svg width="30" height="30" viewBox="0 0 30 30" fill="none" xmlns="http://www.w3.org/2000/svg">
<path fill-rule="evenodd" clip-rule="evenodd" d="M0 15C0 6.7155 6.6969 0 14.9584 0C23.22 0 29.9169 6.7155 29.9169 15C29.9169 23.2845 23.22 30 14.9584 30C6.6969 30 0 23.2845 0 15ZM19.446 10.5L13.9218 11.6085C13.3431 11.7248 12.8116 12.0102 12.3943 12.4287C11.9769 12.8472 11.6923 13.3802 11.5763 13.9605L10.4709 19.5L15.9951 18.3915C16.5741 18.2755 17.1059 17.9902 17.5235 17.5717C17.9412 17.1531 18.226 16.62 18.342 16.0395L19.446 10.5Z" fill="#52388A"/>
</svg>
