<svg width="18" height="20" viewBox="0 0 18 20" fill="none" xmlns="http://www.w3.org/2000/svg">
<path fill-rule="evenodd" clip-rule="evenodd" d="M1.125 18H16.875C17.1734 18 17.4595 18.1054 17.6705 18.2929C17.8815 18.4804 18 18.7348 18 19C18 19.2652 17.8815 19.5196 17.6705 19.7071C17.4595 19.8946 17.1734 20 16.875 20H1.125C0.826631 20 0.540484 19.8946 0.329505 19.7071C0.118527 19.5196 0 19.2652 0 19C0 18.7348 0.118527 18.4804 0.329505 18.2929C0.540484 18.1054 0.826631 18 1.125 18ZM0 13L11.25 3L14.625 6L3.375 16H0V13ZM12.375 2L14.625 0L18 3L15.7489 5.001L12.375 2Z" fill="#52388A"/>
</svg>
