<svg width="19" height="18" viewBox="0 0 19 18" fill="none" xmlns="http://www.w3.org/2000/svg">
<path d="M11.7504 8.25C12.052 8.25 12.3412 8.13147 12.5545 7.9205C12.7677 7.70952 12.8875 7.42337 12.8875 7.125C12.8875 6.82663 12.7677 6.54048 12.5545 6.3295C12.3412 6.11853 12.052 6 11.7504 6C11.4488 6 11.1596 6.11853 10.9463 6.3295C10.7331 6.54048 10.6133 6.82663 10.6133 7.125C10.6133 7.42337 10.7331 7.70952 10.9463 7.9205C11.1596 8.13147 11.4488 8.25 11.7504 8.25ZM7.5809 7.125C7.5809 7.42337 7.4611 7.70952 7.24785 7.9205C7.03459 8.13147 6.74536 8.25 6.44377 8.25C6.14218 8.25 5.85295 8.13147 5.63969 7.9205C5.42644 7.70952 5.30663 7.42337 5.30663 7.125C5.30663 6.82663 5.42644 6.54048 5.63969 6.3295C5.85295 6.11853 6.14218 6 6.44377 6C6.74536 6 7.03459 6.11853 7.24785 6.3295C7.4611 6.54048 7.5809 6.82663 7.5809 7.125ZM4.7972 11.3475C4.92146 11.2638 5.07417 11.2322 5.22192 11.2596C5.36966 11.287 5.50043 11.3712 5.58561 11.4938L5.59243 11.5028L5.62579 11.547C5.65763 11.5875 5.70918 11.649 5.77968 11.7255C5.92144 11.8778 6.1375 12.0855 6.43012 12.2933C7.01234 12.708 7.89324 13.125 9.09709 13.125C10.3009 13.125 11.1818 12.708 11.764 12.2933C12.0567 12.0855 12.2735 11.8778 12.4145 11.7255C12.4807 11.6542 12.5434 11.5799 12.6025 11.5028L12.6078 11.4952C12.6927 11.3719 12.8237 11.287 12.9719 11.2593C13.1202 11.2315 13.2735 11.2631 13.3981 11.3471C13.5228 11.4312 13.6086 11.5608 13.6367 11.7074C13.6647 11.854 13.6328 12.0057 13.5478 12.129L13.5463 12.1298V12.1312L13.544 12.1335L13.5387 12.141L13.5221 12.1642C13.4379 12.2757 13.3481 12.3828 13.2529 12.4852C13.0035 12.7529 12.7272 12.9946 12.4281 13.2067C11.6928 13.7295 10.5845 14.25 9.09709 14.25C7.60971 14.25 6.50138 13.7295 5.76604 13.2067C5.46702 12.9946 5.19065 12.7529 4.94123 12.4852C4.84005 12.3759 4.7449 12.2612 4.65619 12.1417L4.65013 12.1343L4.64861 12.1312L4.64785 12.1298L4.64709 12.129C4.56225 12.0057 4.5304 11.8541 4.55855 11.7075C4.5867 11.5609 4.67254 11.4314 4.7972 11.3475ZM9.09709 0C4.07322 0 0 4.02975 0 9C0 13.9703 4.07322 18 9.09709 18C14.121 18 18.1942 13.9703 18.1942 9C18.1942 4.02975 14.121 0 9.09709 0ZM1.13714 9C1.13714 4.65075 4.70092 1.125 9.09709 1.125C13.4933 1.125 17.057 4.65075 17.057 9C17.057 13.3492 13.4933 16.875 9.09709 16.875C4.70092 16.875 1.13714 13.3492 1.13714 9Z" fill="black" fill-opacity="0.75"/>
</svg>
