<svg width="22" height="22" viewBox="0 0 22 22" fill="none" xmlns="http://www.w3.org/2000/svg">
<path d="M3.22223 11V1M18.7778 21V17.25M3.22223 21V16M18.7778 12.25V1M11 4.75V1M11 21V9.75" stroke="#52388A" stroke-width="1.6" stroke-linecap="round"/>
<path d="M3.22222 16C4.44952 16 5.44444 14.8807 5.44444 13.5C5.44444 12.1193 4.44952 11 3.22222 11C1.99492 11 1 12.1193 1 13.5C1 14.8807 1.99492 16 3.22222 16Z" stroke="#52388A" stroke-width="1.6" stroke-linecap="round"/>
<path d="M11 9.75C12.2273 9.75 13.2222 8.63071 13.2222 7.25C13.2222 5.86929 12.2273 4.75 11 4.75C9.77269 4.75 8.77777 5.86929 8.77777 7.25C8.77777 8.63071 9.77269 9.75 11 9.75Z" stroke="#52388A" stroke-width="1.6" stroke-linecap="round"/>
<path d="M18.7778 17.25C20.0051 17.25 21 16.1307 21 14.75C21 13.3693 20.0051 12.25 18.7778 12.25C17.5505 12.25 16.5555 13.3693 16.5555 14.75C16.5555 16.1307 17.5505 17.25 18.7778 17.25Z" stroke="#52388A" stroke-width="1.6" stroke-linecap="round"/>
</svg>
