<svg width="12" height="12" viewBox="0 0 12 12" fill="none" xmlns="http://www.w3.org/2000/svg">
<path d="M6 3.75C6 2.75544 5.68393 1.80161 5.12132 1.09835C4.55871 0.395088 3.79565 0 3 0C2.20435 0 1.44129 0.395088 0.87868 1.09835C0.316071 1.80161 0 2.75544 0 3.75C0 4.716 0.109029 6.13629 1.2 7.5L6 12C6 12 9.70903 8.86371 10.8 7.5C11.891 6.13629 12 4.716 12 3.75C12 2.75544 11.6839 1.80161 11.1213 1.09835C10.5587 0.395088 9.79565 0 9 0C8.20435 0 7.44129 0.395088 6.87868 1.09835C6.31607 1.80161 6 2.75544 6 3.75Z" fill="#C01313"/>
</svg>
