<svg width="30" height="30" viewBox="0 0 30 30" fill="none" xmlns="http://www.w3.org/2000/svg">
<path d="M11.8272 3.79855C14.0512 0.384011 17.395 -0.613092 20.471 0.34635C23.7914 1.38111 26.7107 4.6468 27.6802 9.19474C27.7303 9.42787 27.7742 9.66101 27.8102 9.89415C26.4106 9.32351 24.8885 9.27953 23.4656 9.76861C21.4499 8.06134 18.9534 7.77441 16.7341 8.71053C13.9541 9.88518 11.7833 12.8639 11.2806 16.612C10.6384 21.411 13.1913 25.7223 16.8014 29.3879L17.4091 29.9904C16.9189 30.0299 16.4208 29.942 15.9447 29.8254C15.7 29.7655 15.4566 29.6986 15.2149 29.6246L14.3738 29.3556C6.89678 26.9471 1.89121 23.1793 0.45501 17.5482C-0.691446 13.054 0.411157 8.55451 2.83563 5.75689C5.08156 3.1655 8.41129 2.11459 11.8272 3.79855ZM14.3769 17.1554C15.0473 12.1484 20.1045 9.68074 22.7013 13.9776C22.7262 14.0175 22.7638 14.0446 22.806 14.053C22.8482 14.0614 22.8916 14.0504 22.9268 14.0224C26.6497 11.0024 30.6638 15.3011 29.7977 20.2687C29.2965 23.1488 26.9629 25.5411 22.7968 27.4421L22.1155 27.7469L21.7036 27.9406C21.3481 28.1002 20.9722 28.2276 20.6323 28.1594C20.294 28.0913 19.9792 27.8223 19.6926 27.5353L19.2071 27.0332C15.5845 23.4626 13.9744 20.17 14.3769 17.1554Z" fill="#52388A"/>
</svg>
