<svg width="16" height="26" viewBox="0 0 16 26" fill="none" xmlns="http://www.w3.org/2000/svg">
<path d="M16 11.317C16 11.1893 15.9127 11.0848 15.8061 11.0848H14.3515C14.2448 11.0848 14.1576 11.1893 14.1576 11.317C14.1576 15.3882 11.4012 18.6875 8 18.6875C4.59879 18.6875 1.84242 15.3882 1.84242 11.317C1.84242 11.1893 1.75515 11.0848 1.64848 11.0848H0.193939C0.0872727 11.0848 0 11.1893 0 11.317C0 16.2123 3.06909 20.2516 7.0303 20.8232V23.7946H3.50788C3.17576 23.7946 2.90909 24.2096 2.90909 24.7232V25.7679C2.90909 25.8955 2.97697 26 3.05939 26H12.9406C13.023 26 13.0909 25.8955 13.0909 25.7679V24.7232C13.0909 24.2096 12.8242 23.7946 12.4921 23.7946H8.87273V20.8377C12.88 20.3154 16 16.2529 16 11.317ZM8 16.25C10.2764 16.25 12.1212 14.0679 12.1212 11.375V4.875C12.1212 2.18214 10.2764 0 8 0C5.72364 0 3.87879 2.18214 3.87879 4.875V11.375C3.87879 14.0679 5.72364 16.25 8 16.25ZM5.72121 4.875C5.72121 3.4067 6.73697 2.20536 8 2.20536C9.26303 2.20536 10.2788 3.4067 10.2788 4.875V11.375C10.2788 12.8433 9.26303 14.0446 8 14.0446C6.73697 14.0446 5.72121 12.8433 5.72121 11.375V4.875Z" fill="#52388A"/>
</svg>
