<svg width="21" height="23" viewBox="0 0 21 23" fill="none" xmlns="http://www.w3.org/2000/svg">
<path d="M8.45642 21.4199C8.51822 21.8578 8.73956 22.2591 9.07958 22.5496C9.41959 22.84 9.85531 23 10.3063 23C10.7572 23 11.1929 22.84 11.5329 22.5496C11.8729 22.2591 12.0943 21.8578 12.1561 21.4199H8.45642Z" fill="#52388A"/>
<path d="M21 18.2103L20.7604 18.0031C20.0807 17.4092 19.4857 16.7283 18.9916 15.9785C18.452 14.9438 18.1285 13.8139 18.0403 12.655V9.24164C18.0449 7.42137 17.3715 5.66208 16.1466 4.29432C14.9216 2.92656 13.2294 2.04446 11.3879 1.81378V0.922436C11.3879 0.677791 11.2888 0.443166 11.1124 0.270175C10.9359 0.097185 10.6967 0 10.4471 0C10.1976 0 9.95835 0.097185 9.78192 0.270175C9.60549 0.443166 9.50638 0.677791 9.50638 0.922436V1.8276C7.68139 2.07491 6.00964 2.96234 4.80078 4.3255C3.59191 5.68867 2.92783 7.43521 2.93154 9.24164V12.655C2.84328 13.8139 2.51984 14.9438 1.9802 15.9785C1.49458 16.7264 0.909198 17.4073 0.239597 18.0031L0 18.2103V20.1589H21V18.2103Z" fill="#52388A"/>
</svg>
