<svg width="57" height="57" viewBox="0 0 57 57" fill="none" xmlns="http://www.w3.org/2000/svg">
<path d="M40.4451 53.0887L25.393 48.2329C18.5691 46.0321 15.1572 44.9316 14.5247 42.3285C13.8863 39.7254 16.4311 37.263 21.5178 32.3441L31.5516 22.6326C36.6383 17.7137 39.1802 15.2513 41.8705 15.8662C44.5608 16.4811 45.7011 19.7824 47.9727 26.385L52.9911 40.9493C55.729 48.8938 57.0979 52.8674 54.9302 54.9649C52.7625 57.0623 48.6557 55.7378 40.4451 53.0887Z" stroke="#C67FFD" stroke-width="1.5" stroke-linecap="round"/>
<path d="M48.1183 29.4622C48.1183 29.4622 41.345 31.6401 36.8641 31.6401C32.3802 31.6401 25.6039 29.4622 25.6039 29.4622M51.4976 41.4435C51.4976 41.4435 43.3227 43.2824 37.9865 43.6214C29.1702 44.1817 15.4751 41.4435 15.4751 41.4435M23.353 22.9257L21.215 22.5148C19.0562 22.0953 17.2953 20.5898 16.6005 18.5699C16.2582 17.5773 15.6508 16.69 14.8399 15.9977C14.029 15.3054 13.0434 14.8328 11.983 14.6278L9.84497 14.2141M32.9949 14.1337L33.3601 13.5245C34.4885 11.6368 34.2391 9.26356 32.7454 7.63158C32.082 6.9083 31.6464 6.0164 31.4902 5.06125C31.3339 4.10609 31.4634 3.12762 31.8635 2.24143L32.2436 1.40533M1.89276 36.4729C2.68922 36.9442 3.62645 37.1424 4.5535 37.0355C5.48055 36.9287 6.34345 36.523 7.0032 35.8839L7.29421 35.6052C8.46121 34.4731 10.1746 34.0565 11.7573 34.5191" stroke="#C67FFD" stroke-width="1.5" stroke-linecap="round"/>
<path d="M5.34024 44.7102C5.19244 44.5669 5.07529 44.3967 4.99545 44.2095C4.91561 44.0223 4.87466 43.8218 4.87494 43.6193C4.87522 43.4168 4.91671 43.2163 4.99706 43.0293C5.0774 42.8423 5.19502 42.6725 5.34321 42.5295C5.49139 42.3865 5.66723 42.2731 5.86069 42.1959C6.05415 42.1186 6.26145 42.079 6.47073 42.0793C6.68002 42.0795 6.8872 42.1197 7.08045 42.1974C7.2737 42.2752 7.44923 42.389 7.59703 42.5323C7.89551 42.8219 8.06288 43.2144 8.06232 43.6233C8.06177 44.0323 7.89333 44.4243 7.59406 44.7131C7.29479 45.0019 6.88921 45.1639 6.46653 45.1633C6.04386 45.1628 5.63872 44.9998 5.34024 44.7102ZM14.893 29.6862C14.745 29.543 14.6276 29.373 14.5475 29.1859C14.4674 28.9989 14.4262 28.7983 14.4262 28.5958C14.4262 28.3933 14.4674 28.1928 14.5475 28.0057C14.6276 27.8186 14.745 27.6486 14.893 27.5054C15.041 27.3623 15.2167 27.2487 15.41 27.1712C15.6034 27.0937 15.8106 27.0538 16.0199 27.0538C16.2292 27.0538 16.4364 27.0937 16.6298 27.1712C16.8231 27.2487 16.9988 27.3623 17.1468 27.5054C17.4457 27.7946 17.6136 28.1869 17.6136 28.5958C17.6136 29.0048 17.4457 29.397 17.1468 29.6862C16.8479 29.9754 16.4426 30.1379 16.0199 30.1379C15.5972 30.1379 15.1919 29.9754 14.893 29.6862ZM23.8014 15.3202C23.6534 15.177 23.536 15.007 23.4559 14.8199C23.3758 14.6328 23.3346 14.4323 23.3346 14.2298C23.3346 14.0273 23.3758 13.8267 23.4559 13.6397C23.536 13.4526 23.6534 13.2826 23.8014 13.1394C23.9494 12.9962 24.125 12.8826 24.3184 12.8051C24.5118 12.7276 24.719 12.6877 24.9283 12.6877C25.1376 12.6877 25.3448 12.7276 25.5382 12.8051C25.7315 12.8826 25.9072 12.9962 26.0552 13.1394C26.3541 13.4286 26.522 13.8208 26.522 14.2298C26.522 14.6387 26.3541 15.031 26.0552 15.3202C25.7563 15.6093 25.351 15.7718 24.9283 15.7718C24.5056 15.7718 24.1002 15.6093 23.8014 15.3202ZM39.1119 9.85818C38.9639 9.71499 38.8465 9.54499 38.7664 9.35791C38.6863 9.17082 38.6451 8.9703 38.6451 8.7678C38.6451 8.56529 38.6863 8.36478 38.7664 8.17769C38.8465 7.9906 38.9639 7.82061 39.1119 7.67741C39.2599 7.53422 39.4356 7.42064 39.6289 7.34314C39.8223 7.26565 40.0295 7.22576 40.2388 7.22576C40.4481 7.22576 40.6553 7.26565 40.8487 7.34314C41.042 7.42064 41.2177 7.53422 41.3657 7.67741C41.6646 7.9666 41.8325 8.35882 41.8325 8.7678C41.8325 9.17677 41.6646 9.56899 41.3657 9.85818C41.0668 10.1474 40.6615 10.3098 40.2388 10.3098C39.8161 10.3098 39.4108 10.1474 39.1119 9.85818Z" fill="#C67FFD"/>
<path d="M16.5469 8.98499C18.5365 10.91 24.3091 9.53089 24.3091 9.53089C24.3091 9.53089 25.7374 3.94537 23.7449 2.02032C21.6366 -0.0196602 18.875 1.13537 18.8809 4.27866C15.6323 4.27004 14.4386 6.945 16.5469 8.98499Z" stroke="#C67FFD" stroke-linejoin="round"/>
<path d="M3.78719 20.9776L4.0782 21.0552C4.39296 21.1414 4.55331 21.1874 4.70773 21.1673C4.86214 21.1471 4.99873 21.0638 5.26895 20.9L5.51245 20.7478C6.46268 20.1703 6.93779 19.8801 7.32679 20.0754C7.71579 20.2766 7.76033 20.8282 7.84941 21.9373L7.87317 22.2246C7.8999 22.5407 7.91177 22.6958 7.98601 22.8337C8.06025 22.9716 8.18793 23.0751 8.44628 23.2791L8.68086 23.4658C9.58358 24.1841 10.0349 24.5433 9.97852 24.9541C9.91913 25.365 9.39056 25.5575 8.33047 25.9339L8.05728 26.0316C7.75439 26.1408 7.60592 26.1925 7.49308 26.2988C7.38618 26.4051 7.32976 26.5517 7.21989 26.8418L7.11893 27.1062C6.72696 28.1319 6.53097 28.6434 6.10931 28.7008C5.68171 28.7583 5.30756 28.3187 4.56519 27.4452L4.37218 27.2182C4.16432 26.9711 4.05742 26.8447 3.91488 26.7729C3.77235 26.7011 3.60903 26.6867 3.28239 26.6637L2.98544 26.6407C1.8422 26.5545 1.26909 26.5114 1.0642 26.1379C0.859307 25.7615 1.15922 25.3018 1.75905 24.3824L1.91347 24.1439C2.08569 23.8853 2.16884 23.7531 2.18962 23.6009C2.21338 23.4515 2.16587 23.2992 2.07679 22.9917L1.99661 22.713C1.67888 21.6327 1.5215 21.0954 1.81844 20.8052C2.11539 20.5179 2.67365 20.6702 3.78719 20.9776Z" stroke="#C67FFD"/>
</svg>
