<svg width="30" height="30" viewBox="0 0 30 30" fill="none" xmlns="http://www.w3.org/2000/svg">
<path fill-rule="evenodd" clip-rule="evenodd" d="M8.31025 6.66667C8.31025 4.89856 9.01068 3.20286 10.2575 1.95262C11.5042 0.702379 13.1952 0 14.9584 0C16.7217 0 18.4127 0.702379 19.6594 1.95262C20.9062 3.20286 21.6066 4.89856 21.6066 6.66667C21.6066 8.43478 20.9062 10.1305 19.6594 11.3807C18.4127 12.631 16.7217 13.3333 14.9584 13.3333C13.1952 13.3333 11.5042 12.631 10.2575 11.3807C9.01068 10.1305 8.31025 8.43478 8.31025 6.66667ZM8.31025 16.6667C6.10623 16.6667 3.99249 17.5446 2.43402 19.1074C0.875542 20.6702 0 22.7899 0 25C0 26.3261 0.525325 27.5979 1.46041 28.5355C2.39549 29.4732 3.66374 30 4.98615 30H24.9307C26.2532 30 27.5214 29.4732 28.4565 28.5355C29.3916 27.5979 29.9169 26.3261 29.9169 25C29.9169 22.7899 29.0414 20.6702 27.4829 19.1074C25.9244 17.5446 23.8107 16.6667 21.6066 16.6667H8.31025Z" fill="#52388A"/>
</svg>
