<svg width="57" height="57" viewBox="0 0 57 57" fill="none" xmlns="http://www.w3.org/2000/svg">
<path d="M3.91134 40.4452L8.76707 25.393C10.9679 18.5692 12.0684 15.1573 14.6715 14.5248C17.2746 13.8864 19.737 16.4312 24.6559 21.5179L34.3674 31.5517C39.2863 36.6384 41.7487 39.1802 41.1338 41.8705C40.5189 44.5609 37.2176 45.7012 30.615 47.9728L16.0507 52.9912C8.10623 55.729 4.13257 57.0979 2.03513 54.9302C-0.0623147 52.7625 1.26224 48.6558 3.91134 40.4452Z" stroke="#52388A" stroke-width="1.5" stroke-linecap="round"/>
<path d="M27.5378 48.1183C27.5378 48.1183 25.3599 41.3449 25.3599 36.864C25.3599 32.3801 27.5378 25.6038 27.5378 25.6038M15.5565 51.4975C15.5565 51.4975 13.7176 43.3226 13.3786 37.9865C12.8183 29.1702 15.5565 15.475 15.5565 15.475M34.0743 23.353L34.4852 21.215C34.9047 19.0562 36.4102 17.2953 38.4301 16.6004C39.4227 16.2581 40.31 15.6508 41.0023 14.8399C41.6946 14.029 42.1672 13.0434 42.3722 11.9829L42.7859 9.84491M42.8663 32.9948L43.4755 33.3601C45.3632 34.4885 47.7364 34.239 49.3684 32.7454C50.0917 32.082 50.9836 31.6464 51.9388 31.4901C52.8939 31.3338 53.8724 31.4634 54.7586 31.8635L55.5947 32.2435M20.5271 1.8927C20.0558 2.68916 19.8576 3.62639 19.9645 4.55344C20.0713 5.48049 20.477 6.34339 21.1161 7.00314L21.3948 7.29415C22.5269 8.46114 22.9435 10.1745 22.4809 11.7572" stroke="#52388A" stroke-width="1.5" stroke-linecap="round"/>
<path d="M12.2898 5.3403C12.4331 5.19251 12.6033 5.07535 12.7905 4.99551C12.9777 4.91567 13.1782 4.87473 13.3807 4.875C13.5832 4.87528 13.7837 4.91677 13.9707 4.99712C14.1577 5.07746 14.3275 5.19508 14.4705 5.34327C14.6135 5.49145 14.7269 5.66729 14.8041 5.86075C14.8814 6.05421 14.921 6.26151 14.9207 6.47079C14.9205 6.68008 14.8803 6.88726 14.8026 7.08051C14.7248 7.27376 14.611 7.44929 14.4677 7.59709C14.1781 7.89557 13.7856 8.06294 13.3767 8.06238C12.9677 8.06183 12.5757 7.89339 12.2869 7.59412C11.9981 7.29485 11.8361 6.88927 11.8367 6.46659C11.8372 6.04392 12.0002 5.63878 12.2898 5.3403ZM27.3138 14.8931C27.457 14.7451 27.627 14.6277 27.8141 14.5476C28.0011 14.4675 28.2017 14.4263 28.4042 14.4263C28.6067 14.4263 28.8072 14.4675 28.9943 14.5476C29.1814 14.6277 29.3514 14.7451 29.4946 14.8931C29.6377 15.041 29.7513 15.2167 29.8288 15.4101C29.9063 15.6034 29.9462 15.8107 29.9462 16.02C29.9462 16.2292 29.9063 16.4365 29.8288 16.6298C29.7513 16.8232 29.6377 16.9989 29.4946 17.1469C29.2054 17.4457 28.8131 17.6137 28.4042 17.6137C27.9952 17.6137 27.603 17.4457 27.3138 17.1469C27.0246 16.848 26.8621 16.4426 26.8621 16.02C26.8621 15.5973 27.0246 15.1919 27.3138 14.8931ZM41.6798 23.8014C41.823 23.6534 41.993 23.536 42.1801 23.456C42.3672 23.3759 42.5677 23.3346 42.7702 23.3346C42.9727 23.3346 43.1733 23.3759 43.3603 23.456C43.5474 23.536 43.7174 23.6534 43.8606 23.8014C44.0038 23.9494 44.1174 24.1251 44.1949 24.3185C44.2724 24.5118 44.3123 24.7191 44.3123 24.9283C44.3123 25.1376 44.2724 25.3449 44.1949 25.5382C44.1174 25.7316 44.0038 25.9073 43.8606 26.0552C43.5714 26.3541 43.1792 26.522 42.7702 26.522C42.3613 26.522 41.969 26.3541 41.6798 26.0552C41.3907 25.7564 41.2282 25.351 41.2282 24.9283C41.2282 24.5057 41.3907 24.1003 41.6798 23.8014ZM47.1418 39.112C47.285 38.964 47.455 38.8466 47.6421 38.7665C47.8292 38.6864 48.0297 38.6452 48.2322 38.6452C48.4347 38.6452 48.6352 38.6864 48.8223 38.7665C49.0094 38.8466 49.1794 38.964 49.3226 39.112C49.4658 39.2599 49.5794 39.4356 49.6569 39.629C49.7344 39.8223 49.7742 40.0296 49.7742 40.2389C49.7742 40.4482 49.7344 40.6554 49.6569 40.8488C49.5794 41.0421 49.4658 41.2178 49.3226 41.3658C49.0334 41.6647 48.6412 41.8326 48.2322 41.8326C47.8232 41.8326 47.431 41.6647 47.1418 41.3658C46.8526 41.0669 46.6902 40.6615 46.6902 40.2389C46.6902 39.8162 46.8526 39.4108 47.1418 39.112Z" fill="#52388A"/>
<path d="M48.015 16.5469C46.09 18.5365 47.4691 24.3091 47.4691 24.3091C47.4691 24.3091 53.0546 25.7374 54.9797 23.7449C57.0197 21.6366 55.8646 18.875 52.7213 18.8809C52.73 15.6323 50.055 14.4386 48.015 16.5469Z" stroke="#52388A" stroke-linejoin="round"/>
<path d="M36.0224 3.78719L35.9448 4.0782C35.8586 4.39296 35.8126 4.55331 35.8327 4.70773C35.8529 4.86214 35.9362 4.99873 36.1 5.26895L36.2522 5.51245C36.8297 6.46268 37.1199 6.93779 36.9246 7.32679C36.7234 7.71579 36.1718 7.76033 35.0627 7.84941L34.7754 7.87317C34.4593 7.8999 34.3042 7.91177 34.1663 7.98601C34.0284 8.06025 33.9249 8.18793 33.7209 8.44628L33.5342 8.68086C32.8159 9.58358 32.4567 10.0349 32.0459 9.97852C31.635 9.91913 31.4425 9.39056 31.0661 8.33047L30.9684 8.05728C30.8592 7.75439 30.8075 7.60592 30.7012 7.49308C30.5949 7.38618 30.4483 7.32976 30.1582 7.21989L29.8938 7.11893C28.8681 6.72696 28.3566 6.53097 28.2992 6.10931C28.2417 5.68171 28.6813 5.30756 29.5548 4.56519L29.7818 4.37218C30.0289 4.16432 30.1553 4.05742 30.2271 3.91488C30.2989 3.77235 30.3133 3.60903 30.3363 3.28239L30.3593 2.98544C30.4455 1.8422 30.4886 1.26909 30.8621 1.0642C31.2385 0.859307 31.6982 1.15922 32.6176 1.75905L32.8561 1.91347C33.1147 2.08569 33.2469 2.16884 33.3991 2.18962C33.5485 2.21338 33.7008 2.16587 34.0083 2.07679L34.287 1.99661C35.3673 1.67888 35.9046 1.5215 36.1948 1.81844C36.4821 2.11539 36.3298 2.67365 36.0224 3.78719Z" stroke="#52388A"/>
</svg>
