<svg width="21" height="22" viewBox="0 0 21 22" fill="none" xmlns="http://www.w3.org/2000/svg">
<path d="M20 21L15.4158 16.1745M15.4158 16.1745C16.1999 15.3491 16.8219 14.3692 17.2463 13.2907C17.6707 12.2122 17.8891 11.0563 17.8891 9.88902C17.8891 8.72169 17.6707 7.5658 17.2463 6.48734C16.8219 5.40887 16.1999 4.42895 15.4158 3.60353C14.6316 2.77811 13.7007 2.12335 12.6762 1.67664C11.6516 1.22992 10.5535 1 9.44457 1C8.33561 1 7.23751 1.22992 6.21297 1.67664C5.18843 2.12335 4.25751 2.77811 3.47336 3.60353C1.88969 5.27055 1 7.5315 1 9.88902C1 12.2465 1.88969 14.5075 3.47336 16.1745C5.05702 17.8415 7.20493 18.778 9.44457 18.778C11.6842 18.778 13.8321 17.8415 15.4158 16.1745Z" stroke="#52388A" stroke-width="1.5" stroke-linecap="round" stroke-linejoin="round"/>
</svg>
