<svg width="24" height="26" viewBox="0 0 24 26" fill="none" xmlns="http://www.w3.org/2000/svg">
<path d="M23.4566 12.033L1.48279 0.114431C1.31056 0.0209968 1.11711 -0.0164403 0.925728 0.00662768C0.734344 0.0296956 0.553188 0.112285 0.404071 0.244451C0.261665 0.373922 0.155374 0.543917 0.097146 0.735326C0.0389185 0.926735 0.0310633 1.13197 0.0744637 1.32796L2.72131 11.9138H14.0179V14.0808H2.72131L0.0345113 24.6341C-0.00621371 24.7978 -0.0109676 24.9696 0.0206321 25.1356C0.0522318 25.3016 0.119303 25.4573 0.216454 25.5901C0.313604 25.7229 0.438121 25.8291 0.579995 25.9001C0.721869 25.9712 0.877139 26.0052 1.03332 25.9994C1.18968 25.9983 1.34363 25.9575 1.48279 25.8802L23.4566 13.9616C23.6202 13.8707 23.7575 13.7326 23.8534 13.5624C23.9493 13.3923 24 13.1967 24 12.9973C24 12.7979 23.9493 12.6023 23.8534 12.4322C23.7575 12.262 23.6202 12.1239 23.4566 12.033Z" fill="#52388A"/>
</svg>
